<svg width="265" height="562" viewBox="0 0 265 562" fill="none" xmlns="http://www.w3.org/2000/svg">
<path d="M109 269.502C89.0306 278.95 37.804 276.746 30.5001 264.503M109 269.502C128.451 262.021 139.227 282.244 150.959 304.002M109 269.502C90.5001 279.503 52.4836 331.11 57.8059 443.002M163.5 325.502C158.966 318.828 154.908 311.328 150.959 304.002M30.5001 264.503C51.0002 260.664 74 255.003 70.0001 235.503M30.5001 264.503C22.5002 266.001 18.8001 262.603 16.0001 255.003C13.2001 247.403 60.0002 231.5 70.0001 235.503M70.0001 235.503C78.8334 232.669 102.5 226.403 126.5 224.003C135.404 223.112 147.658 229.627 160.631 239.503M150.959 304.002C153.306 309.336 151.33 319.244 142.5 332.502C129.752 351.645 69.5281 401.842 57.8059 443.002M76.5001 561.002C72.1667 547.169 62.1001 508.602 56.5001 465.002C55.5765 457.812 56.1239 450.429 57.8059 443.002M220 299.002C206.686 282.649 182.625 256.246 160.631 239.503M160.631 239.503C154.087 229.003 134.9 207.903 110.5 207.503C80.0001 207.003 26.0002 207.5 12.0001 190M12.0001 190C21.1622 191.849 58.5001 190 58.5001 169.003M12.0001 190C5.00021 189.5 5.99992 187 2.5 181.5C-4.81401 170.006 49.5001 162 58.5001 169.003M58.5001 169.003C75.8334 168.169 116.889 165.923 142.5 164.503C152.975 163.922 164.157 171.406 175.5 183.003M238.5 267.003C219.46 242.38 197.186 205.175 175.5 183.003M175.5 183.003C168.333 172.169 141.2 147.101 90 133.501C38.8 119.901 30.3334 102.167 32.5 95.0006M32.5 95.0006C43.3334 98.1672 70.0001 109.501 78.5 88.5006M32.5 95.0006C23.0002 89.5006 23.5002 87.5006 24.5 79.5006C25.707 69.8433 77.0002 81.5001 78.5 88.5006M78.5 88.5006C92 92.8339 125.1 103.101 149.5 109.501M193.5 561.002C182.5 537.835 167.9 475.599 197.5 412.001C234.5 332.502 277 270.501 260 242.001M260 242.001C243 213.501 211 171.501 205.5 158.001C200 144.501 180 117.501 149.5 109.501M260 242.001C248.333 213.834 224 152.701 220 133.501C215 109.501 182 82.0006 163.5 65.5006C157.539 60.184 140.618 43.7819 130 34.0001M149.5 109.501C135.167 95.3339 103.9 63.1006 93.5 47.5006C83.1 31.9006 86.8334 21.6673 90 18.5006M90 18.5006C81.541 6.81964 90.3334 1.16727 93.5 1.0006C96.5002 0.842226 130 23.0001 130 34.0001M90 18.5006C100.5 33.0001 110.5 38.5 116.5 39C121.3 39.4 124 40 130 34.0001" stroke="black" stroke-width="2"/>
</svg>
